<svg width="30" height="26" viewBox="0 0 30 26" fill="none" xmlns="http://www.w3.org/2000/svg">
<path d="M0.631035 12.381L0.807812 12.5578L0.631132 13.619L11.881 24.8689C12.0452 25.0331 12.2678 25.1253 12.5 25.1253C12.7322 25.1253 12.9548 25.0331 13.119 24.8689C13.2831 24.7048 13.3753 24.4821 13.3753 24.25C13.3753 24.0178 13.2831 23.7952 13.119 23.631L3.36293 13.875L28.75 13.875C28.9821 13.875 29.2046 13.7828 29.3687 13.6187C29.5328 13.4546 29.625 13.232 29.625 13C29.625 12.7679 29.5328 12.5454 29.3687 12.3813C29.2046 12.2172 28.9821 12.125 28.75 12.125L3.36293 12.125L13.119 2.36895C13.2831 2.20479 13.3753 1.98214 13.3753 1.74998C13.3753 1.51783 13.2831 1.29518 13.119 1.13102C12.9548 0.966858 12.7322 0.874634 12.5 0.874634C12.2678 0.874634 12.0452 0.966857 11.881 1.13102L0.631132 12.3809L0.631035 12.381Z" fill="#D9DADA" stroke="#D9DADA" stroke-width="0.5"/>
</svg>
