<svg width="30" height="26" viewBox="0 0 30 26" fill="none" xmlns="http://www.w3.org/2000/svg">
<path d="M29.369 13.619L29.1922 13.4422L29.3689 12.381L18.119 1.13105C17.9548 0.966894 17.7322 0.87467 17.5 0.87467C17.2678 0.87467 17.0452 0.966894 16.881 1.13105C16.7169 1.29521 16.6247 1.51786 16.6247 1.75002C16.6247 1.98218 16.7169 2.20482 16.881 2.36898L26.6371 12.125L1.25 12.125C1.01794 12.125 0.795376 12.2172 0.631282 12.3813C0.467187 12.5454 0.375 12.768 0.375 13C0.375 13.2321 0.467187 13.4546 0.631282 13.6187C0.795376 13.7828 1.01794 13.875 1.25 13.875L26.6371 13.875L16.881 23.6311C16.7169 23.7952 16.6247 24.0179 16.6247 24.25C16.6247 24.4822 16.7169 24.7048 16.881 24.869C17.0452 25.0331 17.2678 25.1254 17.5 25.1254C17.7322 25.1254 17.9548 25.0331 18.119 24.869L29.3689 13.6191L29.369 13.619Z" fill="#006EB7" stroke="#006EB7" stroke-width="0.5"/>
</svg>
