<svg width="136" height="136" viewBox="0 0 136 136" fill="none" xmlns="http://www.w3.org/2000/svg">
<path d="M131.806 64.1554L119.085 51.2594C118.745 50.9145 118.371 50.5697 117.963 50.2594C117.895 43.7252 116.569 37.3806 114.069 31.3808C111.569 25.4155 107.998 20.0537 103.44 15.4332C98.8823 10.8127 93.5935 7.19213 87.7094 4.65774C81.6042 2.03716 75.142 0.692383 68.4926 0.692383C41.7592 0.692383 19.7194 22.5363 19.0392 49.5353C18.2739 50.018 17.5766 50.587 16.9304 51.2421L4.20993 64.1382C2.62837 65.7415 1.52298 67.7242 0.995794 69.8793C0.75771 70.862 0.638672 71.8792 0.638672 72.9137C0.638672 73.3275 0.655676 73.7412 0.689688 74.155C0.961784 77.017 2.18622 79.6548 4.20993 81.7064C4.22694 81.7237 4.24394 81.7409 4.26095 81.7582C4.37999 81.8788 4.51604 82.0168 4.65208 82.1375C4.72011 82.1892 4.78813 82.2581 4.85616 82.3099C4.94119 82.3788 5.02621 82.465 5.12825 82.534C5.21328 82.603 5.28131 82.6547 5.36634 82.7236C5.45137 82.7926 5.51939 82.8443 5.60442 82.9133C5.68945 82.9822 5.79149 83.0512 5.87652 83.1029C5.94454 83.1546 6.01256 83.2064 6.09759 83.2581C6.19963 83.3271 6.30166 83.396 6.4037 83.4477C6.47172 83.4822 6.53975 83.534 6.60777 83.5684C6.70981 83.6374 6.82885 83.7064 6.94789 83.7581C6.99891 83.7926 7.06694 83.827 7.11795 83.8615C7.237 83.9305 7.35604 83.9994 7.49209 84.0512C7.54311 84.0684 7.59412 84.1029 7.64514 84.1201C7.78118 84.1891 7.91724 84.2408 8.05328 84.3098C8.0873 84.327 8.1213 84.3443 8.15532 84.3615C8.30837 84.4305 8.47844 84.4994 8.63149 84.5512C8.6485 84.5512 8.6655 84.5684 8.68251 84.5684C10.043 85.0684 11.4715 85.327 12.9 85.327C14.9917 85.327 17.1005 84.7753 18.9711 83.7064V109.757C18.9711 116.55 21.6071 122.963 26.3687 127.808C31.1474 132.653 37.4737 135.308 44.174 135.308C55.6701 135.308 65.5676 127.343 68.4926 116.446C71.4176 127.343 81.3321 135.308 92.8112 135.308C99.5116 135.308 105.838 132.635 110.616 127.808C115.395 122.963 118.014 116.55 118.014 109.757V84.2581C119.63 84.9994 121.364 85.3787 123.116 85.3787C125.769 85.3787 128.439 84.4994 130.633 82.7581C130.667 82.7236 130.701 82.7064 130.735 82.6719C130.82 82.603 130.888 82.534 130.973 82.465C131.058 82.3961 131.126 82.3271 131.211 82.2581C131.262 82.2064 131.33 82.1547 131.381 82.103C131.517 81.9823 131.653 81.8444 131.789 81.7064C133.728 79.741 134.884 77.2583 135.241 74.7067C135.326 74.1205 135.36 73.5171 135.36 72.9137C135.394 69.7586 134.187 66.5863 131.806 64.1554ZM115.293 109.792C115.293 122.343 105.209 132.566 92.8282 132.566C81.1281 132.566 71.2986 123.308 70.4313 111.481L70.3293 110.188H69.0538C68.6967 110.188 68.3226 110.188 67.9654 110.188H66.69L66.5879 111.481C65.7206 123.308 55.8742 132.566 44.191 132.566C31.8107 132.566 21.7261 122.343 21.7261 109.792V81.5857L34.2936 68.8449L32.3549 66.8794L19.6344 79.7755C19.5663 79.8444 19.5153 79.8962 19.4473 79.9651L19.4133 79.9996C15.825 83.4133 10.128 83.4305 6.52274 80.1203C6.4037 80.0168 6.28466 79.8962 6.18262 79.7927C6.16562 79.7755 6.16562 79.7755 6.14861 79.7582C6.04657 79.6548 5.94454 79.5513 5.85951 79.4479C5.82549 79.3962 5.77448 79.3445 5.74047 79.31C5.67245 79.241 5.60442 79.1548 5.5534 79.0858C5.50238 79.0341 5.46837 78.9652 5.41735 78.9134C5.36634 78.8445 5.31531 78.7755 5.2643 78.7066C5.21328 78.6376 5.17927 78.5686 5.12825 78.5169C5.07723 78.4479 5.04322 78.3962 4.9922 78.3273C4.94119 78.2583 4.89017 78.1721 4.85616 78.1031C4.82215 78.0514 4.78813 77.9824 4.75412 77.9307C4.7031 77.8445 4.65209 77.7583 4.60107 77.6721C4.56706 77.6204 4.55005 77.5859 4.51604 77.5342C4.46502 77.4307 4.414 77.3101 4.36298 77.2066C4.34597 77.1721 4.32897 77.1549 4.32897 77.1204C4.26094 76.9825 4.20993 76.8446 4.1419 76.7066C3.66574 75.5515 3.42765 74.2929 3.42765 72.9999C3.42765 71.7068 3.66574 70.4483 4.1419 69.2931C4.19292 69.1552 4.26094 69.0173 4.32897 68.8793C4.34597 68.8449 4.36299 68.8276 4.37999 68.7932C4.43101 68.6897 4.48202 68.569 4.53304 68.4656C4.55005 68.4139 4.58406 68.3621 4.61807 68.3276C4.66909 68.2414 4.72011 68.1552 4.77113 68.069C4.80514 68.0173 4.83915 67.9483 4.87316 67.8966C4.92418 67.8277 4.95819 67.7415 5.00921 67.6725C5.06022 67.6035 5.09424 67.5346 5.14526 67.4829C5.19628 67.4139 5.23029 67.3449 5.28131 67.2932C5.33233 67.2242 5.38334 67.1553 5.43436 67.0863C5.48537 67.0346 5.51939 66.9656 5.57041 66.9139C5.63844 66.845 5.68945 66.7587 5.75747 66.6898C5.79149 66.6381 5.84251 66.5863 5.87652 66.5519C5.97855 66.4484 6.06359 66.345 6.16562 66.2415C6.18263 66.2243 6.19963 66.207 6.19963 66.207L18.9201 53.311C19.5664 52.6559 20.2976 52.1042 21.0969 51.6731L21.8111 51.2766V50.4663C22.0662 24.6052 43.0346 3.57158 68.5436 3.57158C94.3077 3.57158 115.276 24.8294 115.276 50.949V51.7766L115.871 52.1904C116.347 52.5179 116.79 52.8972 117.198 53.311L129.918 66.207C131.534 67.8449 132.452 69.9483 132.656 72.1034C132.673 72.2585 132.673 72.4137 132.69 72.5689C132.707 72.724 132.707 72.8792 132.707 73.0344C132.707 75.4998 131.772 77.9824 129.918 79.8617C129.816 79.9651 129.697 80.0858 129.595 80.172C129.527 80.2237 129.459 80.2927 129.408 80.3444C129.357 80.3789 129.323 80.4306 129.272 80.4651C129.17 80.5513 129.085 80.6203 128.983 80.6892C128.966 80.7065 128.966 80.7065 128.949 80.7237C125.65 83.2409 120.956 83.3443 117.555 80.7927L117.538 80.7754C117.164 80.4996 116.824 80.1893 116.484 79.8444L103.763 66.9484L101.824 68.9138L114.545 81.8099C114.817 82.0857 115.089 82.3443 115.378 82.5857V109.792H115.293Z" fill="#006EB7"/>
<path d="M54.9562 40.7595L56.8948 38.7941L53.7147 35.5701L56.8948 32.3461L54.9562 30.3806L51.776 33.6046L48.5959 30.3806L46.6572 32.3461L49.8373 35.5701L46.6572 38.7941L48.5959 40.7595L51.776 37.5355L54.9562 40.7595Z" fill="#006EB7"/>
<path d="M83.0499 30.3806L79.8698 33.6046L76.6897 30.3806L74.751 32.3461L77.9311 35.5701L74.751 38.7941L76.6897 40.7595L79.8698 37.5355L83.0499 40.7595L84.9886 38.7941L81.8085 35.5701L84.9886 32.3461L83.0499 30.3806Z" fill="#006EB7"/>
<path d="M65.7551 48.7246C58.1534 48.7246 51.8612 53.2244 50.9769 59.0173C50.8579 59.7587 51.4191 60.4483 52.1673 60.4483C52.7625 60.4483 53.2727 60 53.3577 59.3966C54.072 54.7761 59.3609 51.1728 65.7551 51.1728C72.1494 51.1728 77.4552 54.7761 78.1525 59.3966C78.2375 60 78.7477 60.4483 79.3429 60.4483C80.0912 60.4483 80.6524 59.7759 80.5333 59.0173C79.649 53.2244 73.3568 48.7246 65.7551 48.7246Z" fill="#006EB7"/>
</svg>
