<svg width="259" height="26" viewBox="0 0 259 26" fill="none" xmlns="http://www.w3.org/2000/svg">
<g clip-path="url(#clip0_1_1778)">
<path fill-rule="evenodd" clip-rule="evenodd" d="M9.51804 7.44893L8.4964 2.29549L11.9945 4.14478L14.1154 1.78467L16.4367 4.10598L19.7797 2.29549L18.6416 7.44893H9.51804Z" fill="#006EB7"/>
<path d="M18.5963 8.46411H9.6344V17.3485H18.5963V8.46411Z" fill="#006EB7"/>
<path fill-rule="evenodd" clip-rule="evenodd" d="M9.63442 17.3161V8.46411L2.7998 15.6738V24.39H11.4966L18.6028 17.3485L9.63442 17.3161Z" fill="#D9DADA"/>
<path d="M27.7717 17.2062V2.50244H41.4216L44.8227 5.4445V9.89314L41.8613 12.4537L45.2624 15.9583V17.1998H40.8332L37.0117 12.958H32.0587V17.1998H27.7717V17.2062ZM32.0523 9.45345H39.3589L40.5357 8.46414V6.99635L39.3589 6.01351H32.0523V9.45345Z" fill="#006EB7"/>
<path d="M54.5605 17.2062L50.571 13.9086V5.80013L54.5605 2.50244H65.2037L69.1932 5.80013V13.9021L65.2037 17.1998H54.5605V17.2062ZM56.4939 13.6305H63.2768L64.9127 12.2856V7.41664L63.2768 6.0717H56.4939L54.858 7.41664V12.2856L56.4939 13.6305Z" fill="#006EB7"/>
<path d="M79.8428 17.2062V12.4214L72.9565 3.74392V2.50244H77.1336L81.7115 8.5288H82.4034L87.0201 2.50244H90.9903V3.74392L84.1298 12.4149V17.1998H79.8428V17.2062Z" fill="#006EB7"/>
<path d="M104.556 2.50244L112.057 15.9648V17.2062H107.88L106.515 14.6004H96.9197L95.536 17.2062H91.4623V15.9648L98.9565 2.50244H104.556ZM98.8078 11.0312H104.647L102.021 6.0523H101.433L98.8078 11.0312Z" fill="#006EB7"/>
<path d="M116.945 17.2062V2.50244H121.226V13.4624H131.054V17.1998H116.945V17.2062Z" fill="#006EB7"/>
<path d="M155.127 17.2062L151.138 13.9086V5.80013L155.127 2.50244H167.096V6.0717H157.06L155.425 7.41664V12.2856L157.06 13.6305H167.096V17.1998H155.127V17.2062Z" fill="#006EB7"/>
<path d="M172.598 17.2062V2.50244H176.879V13.4624H186.707V17.1998H172.598V17.2062Z" fill="#006EB7"/>
<path d="M191.492 17.2062V2.50244H207.599V6.01351H195.779V8.21843H204.664V11.3674H195.779V13.6952H207.832V17.1998H191.492V17.2062Z" fill="#006EB7"/>
<path d="M224.799 2.50244L232.293 15.9648V17.2062H228.116L226.752 14.6004H217.156L215.772 17.2062H211.699V15.9648L219.193 2.50244H224.799ZM219.044 11.0312H224.883L222.258 6.0523H221.669L219.044 11.0312Z" fill="#006EB7"/>
<path d="M237.188 17.2062V2.50244H243.421L250.12 12.7899H250.624V2.50244H254.717V17.1998H248.484L241.785 6.91229H241.281V17.1998H237.188V17.2062Z" fill="#006EB7"/>
</g>
<defs>
<clipPath id="clip0_1_1778">
<rect width="258.202" height="26" fill="white"/>
</clipPath>
</defs>
</svg>
